<svg xmlns="http://www.w3.org/2000/svg" width="410.5" height="30" viewBox="0 0 410.5 30">
  <g id="Group_1230" data-name="Group 1230" transform="translate(-10910.5 -4913)">
    <g id="Line_2" data-name="Line 2" transform="translate(10885.5 4928)" fill="#fff" stroke-linecap="round">
      <path d="M 420.9703063964844 13.5 L 39.52968597412109 13.5 C 36.03794860839844 13.5 32.75847244262695 12.08815765380859 30.29531669616699 9.524526596069336 C 27.8478946685791 6.9772629737854 26.5 3.59468412399292 26.5 0 C 26.5 -3.59468412399292 27.8478946685791 -6.9772629737854 30.29531669616699 -9.524526596069336 C 32.75847244262695 -12.08815765380859 36.03794860839844 -13.5 39.52968597412109 -13.5 L 420.9703063964844 -13.5 C 424.4620666503906 -13.5 427.7415161132812 -12.08815765380859 430.2046813964844 -9.524526596069336 C 432.652099609375 -6.9772629737854 434 -3.59468412399292 434 0 C 434 3.59468412399292 432.652099609375 6.9772629737854 430.2046813964844 9.524526596069336 C 427.7415161132812 12.08815765380859 424.4620666503906 13.5 420.9703063964844 13.5 Z" stroke="none"/>
      <path d="M 420.9703063964844 12 C 427.3380126953125 12 432.5 6.627420902252197 432.5 0 C 432.5 -6.627420902252197 427.3380126953125 -12 420.9703063964844 -12 L 39.52968597412109 -12 C 33.1619987487793 -12 28 -6.627420902252197 28 0 C 28 6.627420902252197 33.1619987487793 12 39.52968597412109 12 L 420.9703063964844 12 M 420.9703063964844 15 L 39.52968597412109 15 C 37.55442047119141 15 35.63779067993164 14.59715747833252 33.83310699462891 13.80268383026123 C 32.09963226318359 13.03963184356689 30.5454216003418 11.94989490509033 29.21368408203125 10.56378936767578 C 26.49642181396484 7.735736846923828 25 3.984105348587036 25 0 C 25 -3.984105348587036 26.49642181396484 -7.735736846923828 29.21368408203125 -10.56378936767578 C 30.5454216003418 -11.94989490509033 32.09963226318359 -13.03963184356689 33.83310699462891 -13.80268383026123 C 35.63779067993164 -14.59715747833252 37.55442047119141 -15 39.52968597412109 -15 L 420.9703063964844 -15 C 422.9455871582031 -15 424.8622131347656 -14.59715747833252 426.6669006347656 -13.80268383026123 C 428.4003601074219 -13.03963184356689 429.95458984375 -11.94989490509033 431.2863159179688 -10.56378936767578 C 434.0035705566406 -7.735736846923828 435.5 -3.984105348587036 435.5 0 C 435.5 3.984105348587036 434.0035705566406 7.735736846923828 431.2863159179688 10.56378936767578 C 429.95458984375 11.94989490509033 428.4003601074219 13.03963184356689 426.6669006347656 13.80268383026123 C 424.8622131347656 14.59715747833252 422.9455871582031 15 420.9703063964844 15 Z" stroke="none" fill="#000"/>
    </g>
    <g id="Rectangle_375" data-name="Rectangle 375" transform="translate(10916 4917.884)" fill="#fff553" stroke="#000" stroke-width="3">
      <rect class="sliderYellow" width="400" height="20" rx="10" stroke="none"/>
      <rect x="1.5" y="1.5" width="397" height="17" rx="8.5" fill="none"/>
    </g>
  </g>
</svg>

